# xmcd
#
# Track frame offsets: 
#        150
#        23457
#        37882
#        59619
#        75520
#        88394
#        102671
#        116035
#        129128
#        144900
#        161413
#
# Disc length: 2447 seconds
#
# Revision: 2
# Processed by: cddbd v1.5.2PL0 Copyright (c) Steve Scherf et al.
# Submitted via: ExactAudioCopy v0.99pb4
#
DISCID=85098d0b
DTITLE=Tomahawk - Mit Gas
DYEAR=2003
DGENRE=Progressive Rock
TTITLE0=Birdsong
TTITLE1=Rape This Day
TTITLE2=You Can't Win
TTITLE3=Mayday
TTITLE4=Rotgut
TTITLE5=Capt Midnight
TTITLE6=Desastre Natural
TTITLE7=When the Stars Begin To Fall
TTITLE8=Harelip
TTITLE9=Harlem Clowns
TTITLE10=Aktion 13f14
EXTD=
EXTT0=
EXTT1=
EXTT2=
EXTT3=
EXTT4=
EXTT5=
EXTT6=
EXTT7=
EXTT8=
EXTT9=
EXTT10=
PLAYORDER=
